<svg width="8" height="6" viewBox="0 0 8 6" fill="none" xmlns="http://www.w3.org/2000/svg">
<path d="M7.74629 0.204765C7.89079 0.341374 7.97513 0.529779 7.98076 0.728554C7.98638 0.927329 7.91284 1.1202 7.77629 1.26476L3.52629 5.76477C3.45741 5.83757 3.37464 5.89582 3.28286 5.9361C3.19109 5.97637 3.09217 5.99784 2.99196 5.99923C2.89175 6.00063 2.79227 5.98193 2.69941 5.94424C2.60654 5.90654 2.52218 5.85062 2.45129 5.77976L0.201292 3.52977C0.0688118 3.38759 -0.00331137 3.19954 0.000116847 3.00524C0.00354506 2.81094 0.0822571 2.62556 0.21967 2.48814C0.357083 2.35073 0.542468 2.27202 0.736769 2.26859C0.93107 2.26516 1.11912 2.33728 1.26129 2.46976L2.96629 4.17376L6.68629 0.234765C6.8229 0.0902619 7.01131 0.00592625 7.21008 0.000300543C7.40886 -0.00532516 7.60173 0.0682197 7.74629 0.204765Z" fill="#C0BFBF"/>
</svg>
