<svg width="6" height="9" viewBox="0 0 6 9" fill="none" xmlns="http://www.w3.org/2000/svg">
<path d="M1.84766 5.52393C1.84766 5.00114 1.90674 4.58936 2.0249 4.28857C2.14307 3.98421 2.33464 3.72103 2.59961 3.49902C2.86458 3.27702 3.0651 3.07471 3.20117 2.89209C3.34082 2.70589 3.41064 2.50179 3.41064 2.27979C3.41064 1.7391 3.1779 1.46875 2.7124 1.46875C2.49756 1.46875 2.32389 1.54753 2.19141 1.70508C2.05892 1.86263 1.9891 2.07568 1.98193 2.34424H0.166504C0.173665 1.62809 0.399251 1.07129 0.843262 0.673828C1.28727 0.272786 1.91032 0.0722656 2.7124 0.0722656C3.5109 0.0722656 4.12858 0.256673 4.56543 0.625488C5.00586 0.994303 5.22607 1.51888 5.22607 2.19922C5.22607 2.49642 5.16699 2.76676 5.04883 3.01025C4.93066 3.25374 4.74089 3.5026 4.47949 3.75684L3.86182 4.33154C3.68636 4.49984 3.56462 4.6735 3.49658 4.85254C3.42855 5.02799 3.39095 5.25179 3.38379 5.52393H1.84766ZM1.62744 7.15674C1.62744 6.89176 1.72233 6.67513 1.91211 6.50684C2.10547 6.33496 2.34538 6.24902 2.63184 6.24902C2.91829 6.24902 3.15641 6.33496 3.34619 6.50684C3.53955 6.67513 3.63623 6.89176 3.63623 7.15674C3.63623 7.42171 3.53955 7.64014 3.34619 7.81201C3.15641 7.98031 2.91829 8.06445 2.63184 8.06445C2.34538 8.06445 2.10547 7.98031 1.91211 7.81201C1.72233 7.64014 1.62744 7.42171 1.62744 7.15674Z" fill="#C0BFBF"/>
</svg>
