<svg width="10" height="10" viewBox="0 0 10 10" fill="none" xmlns="http://www.w3.org/2000/svg">
<path d="M6.33664 6.32672C7.86198 6.30199 9 5.17272 9 3.66336C9 2.51735 8.62066 2.89669 8.23904 3.28288C7.86198 3.65575 7.0976 4.42432 7.0976 4.42432L5.57568 2.9024C5.57568 2.9024 6.34425 2.13802 6.71712 1.76096C7.10331 1.37934 7.10331 1 6.33664 1C4.82728 1 3.69345 2.13802 3.67328 3.66336C3.68926 4.03471 3.67328 4.8048 3.67328 4.8048C2.95608 5.52657 2.022 6.46103 1.3904 7.08768C0.274834 8.20781 1.79219 9.72517 2.91232 8.6096C3.54011 7.97724 4.47723 7.04012 5.1952 6.32672C5.1952 6.32672 5.96529 6.31074 6.33664 6.32672Z" stroke="#C0BFBF"/>
</svg>
