<svg width="3" height="9" viewBox="0 0 3 9" fill="none" xmlns="http://www.w3.org/2000/svg">
<path d="M2.3042 5.52393H0.837891L0.606934 0.179688H2.53516L2.3042 5.52393ZM0.553223 7.18896C0.553223 6.92399 0.648112 6.70736 0.837891 6.53906C1.03125 6.36719 1.27116 6.28125 1.55762 6.28125C1.84408 6.28125 2.08219 6.36719 2.27197 6.53906C2.46533 6.70736 2.56201 6.92399 2.56201 7.18896C2.56201 7.45394 2.46533 7.67236 2.27197 7.84424C2.08219 8.01253 1.84408 8.09668 1.55762 8.09668C1.27116 8.09668 1.03125 8.01253 0.837891 7.84424C0.648112 7.67236 0.553223 7.45394 0.553223 7.18896Z" fill="#C0BFBF"/>
</svg>
